<svg width="1024" height="1024" viewBox="0 0 1024 1024" fill="none" xmlns="http://www.w3.org/2000/svg">
  <defs>
    <linearGradient id="bgGlow" x1="170" y1="120" x2="860" y2="910" gradientUnits="userSpaceOnUse">
      <stop stop-color="#17233A"/>
      <stop offset="1" stop-color="#0A1220"/>
    </linearGradient>
    <radialGradient id="topGlow" cx="0" cy="0" r="1" gradientUnits="userSpaceOnUse" gradientTransform="translate(280 220) rotate(45) scale(360 360)">
      <stop stop-color="#7DD3FC" stop-opacity="0.25"/>
      <stop offset="1" stop-color="#7DD3FC" stop-opacity="0"/>
    </radialGradient>
    <radialGradient id="bottomGlow" cx="0" cy="0" r="1" gradientUnits="userSpaceOnUse" gradientTransform="translate(760 780) rotate(135) scale(320 320)">
      <stop stop-color="#F4BF72" stop-opacity="0.22"/>
      <stop offset="1" stop-color="#F4BF72" stop-opacity="0"/>
    </radialGradient>
    <linearGradient id="tileFill" x1="0" y1="0" x2="1" y2="1">
      <stop stop-color="#9BE7FF"/>
      <stop offset="0.55" stop-color="#E7E1B9"/>
      <stop offset="1" stop-color="#F4BF72"/>
    </linearGradient>
    <filter id="shadow" x="46" y="46" width="932" height="932" filterUnits="userSpaceOnUse" color-interpolation-filters="sRGB">
      <feFlood flood-opacity="0" result="BackgroundImageFix"/>
      <feColorMatrix in="SourceAlpha" type="matrix" values="0 0 0 0 0 0 0 0 0 0 0 0 0 0 0 0 0 0 127 0" result="hardAlpha"/>
      <feOffset dy="28"/>
      <feGaussianBlur stdDeviation="38"/>
      <feComposite in2="hardAlpha" operator="out"/>
      <feColorMatrix type="matrix" values="0 0 0 0 0.008 0 0 0 0 0.039 0 0 0 0 0.102 0 0 0 0.72 0"/>
      <feBlend mode="normal" in2="BackgroundImageFix" result="effect1_dropShadow_0_1"/>
      <feBlend mode="normal" in="SourceGraphic" in2="effect1_dropShadow_0_1" result="shape"/>
    </filter>
    <filter id="tileGlow" x="250" y="250" width="524" height="524" filterUnits="userSpaceOnUse" color-interpolation-filters="sRGB">
      <feFlood flood-opacity="0" result="BackgroundImageFix"/>
      <feBlend mode="normal" in="SourceGraphic" in2="BackgroundImageFix" result="shape"/>
      <feGaussianBlur stdDeviation="14" result="effect1_foregroundBlur_0_1"/>
    </filter>
  </defs>

  <rect width="1024" height="1024" rx="248" fill="#09111E"/>
  <g filter="url(#shadow)">
    <rect x="122" y="108" width="780" height="780" rx="210" fill="url(#bgGlow)"/>
    <rect x="123.5" y="109.5" width="777" height="777" rx="208.5" stroke="#FFFFFF" stroke-opacity="0.08"/>
    <rect x="122" y="108" width="780" height="780" rx="210" fill="url(#topGlow)"/>
    <rect x="122" y="108" width="780" height="780" rx="210" fill="url(#bottomGlow)"/>
  </g>

  <g opacity="0.22" filter="url(#tileGlow)">
    <rect x="356" y="356" width="114" height="114" rx="30" fill="url(#tileFill)"/>
    <rect x="526" y="356" width="114" height="114" rx="30" fill="url(#tileFill)"/>
    <rect x="356" y="526" width="114" height="114" rx="30" fill="url(#tileFill)"/>
    <rect x="526" y="526" width="114" height="114" rx="30" fill="url(#tileFill)"/>
  </g>

  <rect x="338" y="338" width="148" height="148" rx="40" fill="url(#tileFill)"/>
  <rect x="538" y="338" width="148" height="148" rx="40" fill="url(#tileFill)"/>
  <rect x="338" y="538" width="148" height="148" rx="40" fill="url(#tileFill)"/>
  <rect x="538" y="538" width="148" height="148" rx="40" fill="url(#tileFill)"/>

  <rect x="338" y="338" width="148" height="148" rx="40" stroke="#FFFFFF" stroke-opacity="0.18"/>
  <rect x="538" y="338" width="148" height="148" rx="40" stroke="#FFFFFF" stroke-opacity="0.18"/>
  <rect x="338" y="538" width="148" height="148" rx="40" stroke="#FFFFFF" stroke-opacity="0.18"/>
  <rect x="538" y="538" width="148" height="148" rx="40" stroke="#FFFFFF" stroke-opacity="0.18"/>
</svg>
